<svg aria-hidden="true" style="position: absolute; width: 0; height: 0; overflow: hidden;" version="1.1" xmlns="http://www.w3.org/2000/svg" xmlns:xlink="http://www.w3.org/1999/xlink">
  <defs>
    <symbol id="icon-like" viewBox="0 0 32 32">
      <path fill="#fd8061" style="fill: var(--color1, #fd8061)" d="M19.13 11.65v-5.8c0-1.154-0.458-2.26-1.274-3.076s-1.922-1.274-3.076-1.274l-5.8 13.050v15.95h16.356c0.699 0.008 1.378-0.237 1.911-0.69s0.884-1.083 0.989-1.775l2.001-13.050c0.063-0.416 0.035-0.84-0.082-1.244s-0.321-0.777-0.597-1.094c-0.276-0.317-0.617-0.571-1.001-0.743s-0.8-0.259-1.22-0.254h-8.207zM8.98 30.5h-4.35c-0.769 0-1.507-0.305-2.051-0.849s-0.849-1.282-0.849-2.051v-10.15c0-0.769 0.305-1.507 0.849-2.051s1.281-0.849 2.051-0.849h4.35z"></path>
      <path fill="none" stroke="#393a73" style="stroke: var(--color2, #393a73)" stroke-linejoin="round" stroke-linecap="round" stroke-miterlimit="4" stroke-width="3" d="M8.98 30.5h-4.35c-0.769 0-1.507-0.305-2.051-0.849s-0.849-1.282-0.849-2.051v-10.15c0-0.769 0.305-1.507 0.849-2.051s1.281-0.849 2.051-0.849h4.35M19.13 11.65v-5.8c0-1.154-0.458-2.26-1.274-3.076s-1.922-1.274-3.076-1.274l-5.8 13.050v15.95h16.356c0.699 0.008 1.378-0.237 1.911-0.69s0.884-1.083 0.989-1.775l2.001-13.050c0.063-0.416 0.035-0.84-0.082-1.244s-0.321-0.777-0.597-1.094c-0.276-0.317-0.617-0.571-1.001-0.743s-0.8-0.259-1.22-0.254h-8.207z"></path>
    </symbol>
  </defs>
</svg>
